<svg width="48" height="48" viewBox="0 0 48 48" fill="none" xmlns="http://www.w3.org/2000/svg">
<path d="M6.76822 19.4469L6.76682 19.4478L6.76483 19.4461L6.00218 10.7336C5.975 10.4231 6.20481 10.1494 6.51548 10.1222L11.7687 9.66287C12.2318 9.62238 12.5427 10.1272 12.298 10.5222L6.76822 19.4469ZM19.8281 18.0782C19.7344 18.2296 19.5747 18.3278 19.3973 18.3433L11.0462 19.0736C10.5831 19.1141 10.2722 18.6092 10.5169 18.2142L15.8982 9.52919C15.9919 9.37787 16.1516 9.27962 16.329 9.26411L24.6801 8.53387C25.1432 8.49338 25.4541 8.99822 25.2094 9.39322L19.8281 18.0782ZM33.084 16.9191C32.9902 17.0704 32.8305 17.1687 32.6531 17.1842L23.9576 17.9446C23.4945 17.9851 23.1836 17.4802 23.4283 17.0852L28.8096 8.40019C28.9034 8.24887 29.063 8.15062 29.2404 8.13511L37.9357 7.37478C38.3988 7.33428 38.7097 7.83912 38.465 8.23411L33.084 16.9191ZM42.9978 15.7131C43.025 16.0236 42.7952 16.2974 42.4845 16.3245L37.2132 16.7855C36.7501 16.826 36.4391 16.3211 36.6839 15.9261L42.2105 7.00661C42.2128 7.00287 42.2167 7.00044 42.2211 7.00005C42.2288 6.99938 42.2356 7.00506 42.2362 7.01274L42.9978 15.7131Z" fill="#FF2157"/>
<path d="M6.74735 22.7578C6.74735 22.4471 7.00019 22.1952 7.31208 22.1952H34.4196C34.7315 22.1952 34.9843 22.4471 34.9843 22.7578V31.8089C34.9843 32.1196 34.7315 32.3715 34.4196 32.3715H16.8382C16.704 32.3715 16.5742 32.4191 16.472 32.5059L7.67835 39.9698C7.31169 40.281 6.74735 40.0215 6.74735 39.5416V22.7578Z" fill="#FF2157"/>
</svg>
